<svg width="70" height="70" viewBox="0 0 70 70" fill="none" xmlns="http://www.w3.org/2000/svg">
<rect x="1" y="1" width="68" height="68" fill="{{$colour}}" stroke="black" stroke-width="2"/>
<g clip-path="url(#clip0)">
<path d="M57.1608 31.3021C56.3891 30.7347 55.4304 30.026 55.3042 29.5564C55.1673 29.0434 55.6564 27.913 56.0521 27.0064C56.7282 25.4499 57.4282 23.839 56.6521 22.4955C55.8674 21.1346 54.1042 20.9368 52.4021 20.7456C51.4303 20.6368 50.2217 20.5021 49.8607 20.1391C49.4977 19.7782 49.3629 18.5695 49.2542 17.5977C49.063 15.8955 48.8651 14.1347 47.5043 13.3477C46.3217 12.6608 44.5695 13.2608 42.9934 13.9477C42.1216 14.3259 41.2129 14.6868 40.4412 14.6955C39.9717 14.5716 39.2652 13.6108 38.6955 12.839C37.7152 11.5087 36.6043 10 34.9999 10C33.3977 10 32.2848 11.5087 31.3043 12.837C30.7347 13.6087 30.0281 14.5696 29.3629 14.7174C28.7781 14.7174 27.8781 14.3261 27.0064 13.9478C25.426 13.2609 23.6717 12.6674 22.4978 13.3478C21.1347 14.1348 20.9369 15.8956 20.7456 17.5978C20.6391 18.5696 20.5021 19.7761 20.1412 20.1392C19.7781 20.5022 18.5695 20.6369 17.5999 20.7457C15.8955 20.9369 14.1324 21.137 13.3477 22.4956C12.5716 23.837 13.2716 25.4479 13.9477 27.0065C14.3434 27.9131 14.8346 29.0435 14.6977 29.5565C14.5716 30.0261 13.6107 30.7348 12.8411 31.3022C11.5087 32.2826 10 33.3956 10 34.9999C10 36.6043 11.5087 37.7174 12.8391 38.6978C13.6108 39.2652 14.5695 39.9739 14.6956 40.4435C14.8326 40.9565 14.3435 42.0869 13.9478 42.9935C13.2717 44.55 12.5717 46.1609 13.3478 47.5044C14.1325 48.8653 15.8956 49.0631 17.5978 49.2543C18.5696 49.3631 19.7782 49.4978 20.1392 49.8608C20.5022 50.2217 20.6369 51.4304 20.7457 52.4022C20.9369 54.1044 21.1348 55.8652 22.4956 56.6522C23.6739 57.337 25.426 56.7391 27.0065 56.0522C27.8783 55.674 28.7696 55.2913 29.5587 55.3044C30.0282 55.4283 30.7347 56.3891 31.3044 57.1609C32.2848 58.4913 33.3957 60 35.0001 60C36.6023 60 37.7152 58.4913 38.6935 57.163C39.263 56.3913 39.9696 55.4304 40.6348 55.2826C41.2218 55.2826 42.1218 55.674 42.9913 56.0522C44.574 56.7414 46.3261 57.3349 47.5 56.6544C48.863 55.8674 49.0608 54.1065 49.2522 52.4022C49.3587 51.4304 49.4956 50.2239 49.8566 49.8608C50.2196 49.4978 51.4283 49.3631 52.3979 49.2543C54.1022 49.0631 55.8653 48.863 56.6501 47.5044C57.4283 46.163 56.7283 44.5522 56.0501 42.9935C55.6544 42.0869 55.1653 40.9587 55.3022 40.4435C55.4283 39.9739 56.3892 39.2652 57.1588 38.6978C58.4913 37.7174 60.0001 36.6043 60.0001 34.9999C60.0001 33.3956 58.4912 32.2826 57.1608 31.3021ZM55.8739 36.9434C54.7195 37.7934 53.5261 38.6717 53.2044 39.8761C52.8717 41.1239 53.4761 42.513 54.0608 43.8565C54.4347 44.7173 55 46.0173 54.7738 46.4108C54.5369 46.8217 53.1087 46.9826 52.1608 47.0891C50.7173 47.2521 49.2239 47.4196 48.3239 48.3196C47.4239 49.2196 47.2564 50.7131 47.0956 52.1565C46.9891 53.1021 46.8282 54.5325 46.4152 54.7696C46.3521 54.8066 46.2478 54.8152 46.1718 54.8152C45.6065 54.8152 44.7196 54.4283 43.861 54.0566C42.5131 53.4717 41.0392 52.8892 39.8827 53.2022C38.6762 53.5239 37.7979 54.7174 36.9458 55.8717C36.3719 56.65 35.5045 57.8261 35.0002 57.8261C34.4958 57.8261 33.6262 56.6501 33.0545 55.8717C32.2046 54.7195 31.3263 53.5261 30.1198 53.2044C29.8828 53.1413 29.6285 53.1087 29.3611 53.1087C28.3241 53.1087 27.2133 53.5913 26.1394 54.0608C25.2829 54.4326 24.3959 54.8195 23.8285 54.8195C23.7524 54.8195 23.6481 54.8108 23.5851 54.7738C23.1721 54.5347 23.0133 53.1064 22.9068 52.1608C22.7438 50.7173 22.5764 49.2239 21.6764 48.3239C20.7785 47.4239 19.2829 47.2564 17.8394 47.0934C16.8959 46.9869 15.4655 46.826 15.2286 46.4151C15.0003 46.0238 15.5677 44.7216 15.9416 43.8607C16.5264 42.5173 17.1307 41.1281 16.7981 39.8803C16.4741 38.676 15.2807 37.7978 14.1286 36.9477C13.3503 36.3717 12.1742 35.5043 12.1742 34.9998C12.1742 34.4954 13.3502 33.6281 14.1286 33.052C15.2829 32.202 16.4764 31.3237 16.7981 30.1193C17.1307 28.8716 16.5263 27.4824 15.9416 26.139C15.5699 25.2781 15.0025 23.9781 15.2286 23.5846C15.4678 23.1737 16.896 23.0128 17.8417 22.9084C19.2851 22.7454 20.7786 22.578 21.6786 21.678C22.5786 20.778 22.746 19.2845 22.9091 17.8411C23.0134 16.8954 23.1743 15.4671 23.5873 15.228C23.6504 15.191 23.7547 15.1823 23.8308 15.1823C24.396 15.1823 25.283 15.5693 26.1395 15.9432C27.4873 16.5281 28.959 17.1128 30.1177 16.7976C31.3242 16.4759 32.2025 15.2824 33.0546 14.1281C33.6285 13.3498 34.4959 12.1737 35.0003 12.1737C35.5046 12.1737 36.3742 13.3497 36.9481 14.1258C37.7981 15.278 38.6764 16.4715 39.8829 16.7932C41.0307 17.0997 42.5133 16.5258 43.8612 15.9389C44.7176 15.5671 45.6046 15.1802 46.172 15.1802C46.2481 15.1802 46.3525 15.1889 46.4154 15.2258C46.8284 15.465 46.9872 16.8933 47.0937 17.8389C47.2567 19.2824 47.4242 20.7758 48.3242 21.6758C49.222 22.5758 50.7176 22.7433 52.1611 22.9063C53.1046 23.0128 54.535 23.1737 54.7719 23.5846C55.0002 23.9759 54.4328 25.2781 54.0589 26.139C53.4741 27.4824 52.8698 28.8716 53.2024 30.1193C53.5264 31.3237 54.7198 32.2019 55.8719 33.052C56.6502 33.628 57.8263 34.4954 57.8263 34.9998C57.8263 35.5043 56.65 36.3718 55.8739 36.9434Z" fill="black"/>
<path d="M28.4781 29.5652C27.8781 29.5652 27.3911 30.0522 27.3911 30.6522V36.0869L22.8259 30C22.5455 29.6261 22.0542 29.4717 21.6129 29.6217C21.1694 29.7696 20.8694 30.1847 20.8694 30.6522V39.3478C20.8694 39.9478 21.3564 40.4347 21.9564 40.4347C22.5564 40.4347 23.0434 39.9478 23.0434 39.3478V33.913L27.6086 39.9999C27.8173 40.2782 28.1434 40.4347 28.4781 40.4347C28.5934 40.4347 28.7085 40.4173 28.8216 40.3782C29.2651 40.2303 29.5651 39.8152 29.5651 39.3478V30.6522C29.5651 30.0522 29.0781 29.5652 28.4781 29.5652Z" fill="black"/>
<path d="M37.1741 38.261H33.9132V31.7393H37.1741C37.7741 31.7393 38.2611 31.2523 38.2611 30.6523C38.2611 30.0523 37.7741 29.5654 37.1741 29.5654H32.8262C32.2262 29.5654 31.7393 30.0524 31.7393 30.6524V39.348C31.7393 39.948 32.2262 40.435 32.8262 40.435H37.1741C37.7741 40.435 38.2611 39.948 38.2611 39.348C38.2611 38.748 37.7741 38.261 37.1741 38.261Z" fill="black"/>
<path d="M37.1741 33.9131H32.8262C32.2262 33.9131 31.7393 34.4001 31.7393 35.0001C31.7393 35.6001 32.2262 36.087 32.8262 36.087H37.1741C37.7741 36.087 38.2611 35.6 38.2611 35C38.2611 34.4 37.7741 33.9131 37.1741 33.9131Z" fill="black"/>
<path d="M50.4782 29.5975C49.8913 29.4519 49.3043 29.8041 49.1608 30.3888L47.8935 35.4627L46.9 32.4823C46.6044 31.5953 45.1348 31.5953 44.837 32.4823L43.8436 35.4627L42.5762 30.3888C42.4306 29.804 41.8306 29.4497 41.2588 29.5975C40.6762 29.7432 40.3241 30.3324 40.4676 30.9149L42.6414 39.6106C42.7588 40.078 43.1718 40.4149 43.6544 40.4323C44.2001 40.454 44.5761 40.1475 44.7284 39.691L45.8697 36.2627L47.011 39.691C47.161 40.1366 47.5762 40.4344 48.0436 40.4344C48.0566 40.4344 48.0718 40.4344 48.0827 40.4323C48.5653 40.4149 48.9783 40.0801 49.0957 39.6106L51.2696 30.9149C51.4151 30.3324 51.0629 29.7432 50.4782 29.5975Z" fill="black"/>
</g>
<defs>
<clipPath id="clip0">
<rect width="50" height="50" fill="white" transform="translate(10 10)"/>
</clipPath>
</defs>
</svg>
