<svg width="70" height="70" viewBox="0 0 70 70" fill="none" xmlns="http://www.w3.org/2000/svg">
<rect x="1" y="1" width="68" height="68" fill="{{$colour}}" stroke="black" stroke-width="2"/>
<g clip-path="url(#clip0)">
<path d="M54.6121 10H43.0425C40.5027 10 37.1061 11.4069 35.3105 13.2028L11.5732 36.9398C10.5585 37.9541 10 39.3068 10 40.7491C10 42.1915 10.5589 43.5442 11.5732 44.5585L25.4411 58.4268C26.4555 59.4411 27.8082 60 29.2505 60C30.6924 60 32.0455 59.4411 33.0602 58.4268L56.7972 34.6895C58.5931 32.8939 60 29.4973 60 26.9575V15.3871C59.9996 12.4166 57.5826 10 54.6121 10ZM57.0703 26.9575C57.0703 28.7241 55.9747 31.3692 54.7258 32.6181L30.9885 56.3551C30.5273 56.8163 29.91 57.0703 29.2505 57.0703C28.5909 57.0703 27.9741 56.8163 27.5129 56.3554L13.6449 42.4867C13.1837 42.0255 12.9297 41.4083 12.9297 40.7491C12.9297 40.0896 13.1834 39.4724 13.6446 39.0115L37.3819 15.2742C38.6308 14.0253 41.2759 12.9297 43.0425 12.9297H54.6121C55.9675 12.9297 57.0699 14.0321 57.0703 15.3871V26.9575Z" fill="black"/>
<path d="M23.6044 42.372C23.0719 41.8398 23.205 41.0632 24.0034 40.264C24.9357 39.3321 25.6125 39.4984 25.9566 39.1547C26.356 38.7553 26.0229 38.0671 25.7677 37.8123C25.0353 37.0799 23.4267 38.378 22.7721 39.0326C21.496 40.3086 20.6419 42.2945 22.2948 43.9478C24.9243 46.5773 27.9757 42.5055 29.64 44.1698C30.3057 44.8355 30.0284 45.7117 29.3627 46.3778C28.2309 47.5092 27.0769 46.9546 26.6222 47.4093C26.2781 47.7534 26.4559 48.5079 26.7664 48.8188C27.41 49.4623 29.2517 49.0851 30.7051 47.6313C32.2363 46.1005 32.5247 44.1695 30.9382 42.5829C28.0646 39.7097 24.98 43.7483 23.6044 42.372Z" fill="black"/>
<path d="M39.115 37.6021L29.9944 32.7647C29.5618 32.5316 28.9957 32.7868 28.5742 33.2087C28.1637 33.6188 27.9085 34.1849 28.1416 34.6179L32.979 43.738C33.0122 43.7934 33.0458 43.8487 33.0679 43.8712C33.4231 44.2259 34.1887 43.9486 34.5766 43.5603C34.8208 43.3165 34.9322 43.0499 34.7765 42.7836L33.7225 40.8866L36.2635 38.3456L38.1605 39.4C38.4272 39.5549 38.6931 39.4442 38.9372 39.2001C39.3255 38.8117 39.5918 38.0347 39.2477 37.691C39.2149 37.6578 39.1703 37.6353 39.115 37.6021ZM32.8905 39.4553L30.4495 35.0833L34.8211 37.5247L32.8905 39.4553Z" fill="black"/>
<path d="M43.4969 32.1104L40.7896 34.8177L34.3878 28.4155C34.0769 28.105 33.5779 28.3381 33.2228 28.6928C32.8569 29.059 32.6345 29.5473 32.9454 29.8582L40.1571 37.0703C40.4569 37.3697 40.9227 37.2145 41.2447 36.8925L44.7618 33.3754C45.0502 33.087 44.8728 32.6208 44.5619 32.3103C44.2404 31.9883 43.7856 31.8216 43.4969 32.1104Z" fill="black"/>
<path d="M49.2994 26.3079L46.1595 29.4478L43.9295 27.2177L45.616 25.5312C45.9265 25.2207 45.7712 24.7767 45.516 24.5215C45.2166 24.222 44.7725 24.1114 44.4841 24.3998L42.7977 26.0859L40.5786 23.8669L43.7185 20.7274C44.0069 20.4386 43.8738 19.9728 43.5301 19.6287C43.2302 19.3293 42.7645 19.1515 42.4536 19.462L38.5038 23.4121C38.1823 23.7337 38.0266 24.1999 38.3264 24.4993L45.5275 31.7C45.8269 31.9998 46.2927 31.8445 46.6146 31.5226L50.5644 27.5728C50.8753 27.2623 50.6975 26.7962 50.3981 26.4967C50.054 26.1526 49.5878 26.0195 49.2994 26.3079Z" fill="black"/>
<path d="M50.7686 17.8516C50.3829 17.8516 50.0049 18.008 49.7325 18.2803C49.4601 18.5527 49.3037 18.9307 49.3037 19.3164C49.3037 19.7025 49.4601 20.0793 49.7325 20.3517C50.0049 20.6252 50.3829 20.7812 50.7686 20.7812C51.1542 20.7812 51.5311 20.6252 51.8039 20.3517C52.077 20.0793 52.2334 19.7013 52.2334 19.3164C52.2334 18.9307 52.077 18.5527 51.8039 18.2803C51.5311 18.008 51.1542 17.8516 50.7686 17.8516Z" fill="black"/>
</g>
<defs>
<clipPath id="clip0">
<rect width="50" height="50" fill="white" transform="translate(10 10)"/>
</clipPath>
</defs>
</svg>
