<svg width="70" height="70" viewBox="0 0 70 70" fill="none" xmlns="http://www.w3.org/2000/svg">
<rect x="1" y="1" width="68" height="68" fill="{{$colour}}" stroke="black" stroke-width="2"/>
<g clip-path="url(#clip0)">
<path d="M54.5243 11.5931C54.3894 10.9896 53.8901 10.5358 53.2765 10.4591C47.2307 9.7034 41.6456 9.88133 36.6766 10.9879C30.3488 12.3968 24.9243 15.3268 20.5529 19.6975C13.7358 26.5215 13.7358 37.6249 20.5536 44.4494C21.2112 45.1068 21.9127 45.7045 22.6505 46.2417V58.5352C22.6505 59.3442 23.3063 60.0001 24.1153 60.0001C24.9243 60.0001 25.5802 59.3442 25.5802 58.5352V47.9647C27.8543 49.017 30.3501 49.5723 32.9322 49.5723C37.6105 49.5723 42.0048 47.7527 45.305 44.4493C50.4646 39.29 49.3961 32.1813 49.0445 28.192C48.5076 22.1014 48.0438 16.8415 53.878 13.1506C54.4005 12.8199 54.6593 12.1968 54.5243 11.5931ZM22.6249 21.7687C27.7842 16.6104 34.4885 13.6984 42.6329 13.0607C39.1397 14.7626 35.7642 17.2445 32.8169 20.3555C27.0382 26.4554 23.5497 34.2362 22.8032 42.5516C16.9651 36.9056 16.8752 27.5242 22.6249 21.7687ZM46.126 28.4493C46.5858 33.6649 47.02 38.5913 43.2327 42.3782C40.4854 45.1282 36.8273 46.6427 32.932 46.6427C30.3152 46.6427 27.805 45.9582 25.605 44.6761C25.9055 36.3198 29.1932 28.4405 34.9436 22.3703C37.5858 19.5813 40.6808 17.2781 43.8939 15.7097C45.4605 14.9449 47.0411 14.3611 48.5925 13.9687C47.4411 15.4432 46.6609 17.1298 46.2353 19.0543C45.565 22.0859 45.8502 25.3209 46.126 28.4493Z" fill="black"/>
</g>
<defs>
<clipPath id="clip0">
<rect width="50" height="50" fill="white" transform="translate(10 10)"/>
</clipPath>
</defs>
</svg>
