<svg width="54" height="54" viewBox="0 0 54 54" fill="none" xmlns="http://www.w3.org/2000/svg" class="cart" style="height: 100%;">
<g clip-path="url(#clip1)">
<path d="M16.2109 35.5549H45.965C49.3388 35.5549 52.0911 32.8026 52.0911 29.4287V16.9101C52.0911 16.899 52.0911 16.8768 52.0911 16.8657C52.0911 16.8324 52.0911 16.8102 52.0911 16.7769C52.0911 16.7547 52.0912 16.7325 52.0801 16.7103C52.0801 16.6881 52.069 16.6548 52.069 16.6326C52.069 16.6104 52.0579 16.5882 52.0579 16.566C52.0468 16.5438 52.0468 16.5216 52.0357 16.4883C52.0246 16.4661 52.0246 16.4439 52.0135 16.4217C52.0024 16.3995 52.0024 16.3774 51.9913 16.3552C51.9802 16.333 51.9691 16.3108 51.958 16.2775C51.9469 16.2553 51.9358 16.2331 51.9247 16.222C51.9136 16.1998 51.9025 16.1776 51.8914 16.1554C51.8803 16.1332 51.8692 16.1221 51.8581 16.0999C51.847 16.0777 51.8248 16.0555 51.8137 16.0333C51.8026 16.0111 51.7915 16 51.7693 15.9778C51.7582 15.9556 51.736 15.9445 51.7249 15.9223C51.7138 15.9001 51.6916 15.889 51.6805 15.8668C51.6694 15.8446 51.6472 15.8335 51.6361 15.8224C51.6139 15.8003 51.6028 15.7892 51.5806 15.767C51.5584 15.7559 51.5473 15.7337 51.5251 15.7226C51.503 15.7115 51.4808 15.6893 51.4586 15.6782C51.4364 15.6671 51.4253 15.656 51.4031 15.6449C51.3809 15.6338 51.3587 15.6227 51.3365 15.6005C51.3143 15.5894 51.2921 15.5783 51.2699 15.5672C51.2477 15.5561 51.2255 15.545 51.2033 15.5339C51.1811 15.5228 51.1589 15.5117 51.1367 15.5006C51.1145 15.4895 51.0923 15.4895 51.0701 15.4784C51.0479 15.4673 51.0146 15.4562 50.9924 15.4562C50.9702 15.4562 50.948 15.4451 50.9369 15.4451C50.9037 15.434 50.8815 15.434 50.8482 15.434C50.8371 15.434 50.826 15.4229 50.8038 15.4229L13.0924 10.2179V4.95739C13.0924 4.9019 13.0924 4.84641 13.0813 4.80202C13.0813 4.79092 13.0813 4.77982 13.0702 4.75762C13.0702 4.72433 13.0591 4.69104 13.0591 4.65774C13.048 4.62445 13.048 4.60225 13.0369 4.56896C13.0369 4.54676 13.0258 4.53566 13.0258 4.51347C13.0147 4.48017 13.0036 4.44688 12.9925 4.41358C12.9925 4.40248 12.9814 4.38029 12.9814 4.36919C12.9703 4.3359 12.9592 4.3137 12.937 4.28041C12.9259 4.26931 12.9259 4.24711 12.9148 4.23601C12.9037 4.21382 12.8926 4.19162 12.8704 4.16942C12.8593 4.14723 12.8482 4.13613 12.8371 4.11393C12.826 4.09174 12.8149 4.08064 12.8038 4.05844C12.7927 4.03625 12.7705 4.01405 12.7594 3.99185C12.7483 3.98076 12.7372 3.96966 12.7261 3.95856C12.7039 3.93636 12.6817 3.91417 12.6595 3.89197C12.6484 3.88087 12.6373 3.86977 12.6262 3.85868C12.6041 3.83648 12.5819 3.81428 12.5486 3.79209C12.5375 3.78099 12.5153 3.76989 12.5042 3.75879C12.482 3.7366 12.4598 3.7255 12.4376 3.7033C12.4043 3.68111 12.371 3.65891 12.3488 3.64781C12.3377 3.63671 12.3266 3.63671 12.3155 3.62562C12.2711 3.60342 12.2156 3.58122 12.1712 3.55903L3.99191 0.118611C3.22614 -0.203234 2.34939 0.151905 2.02755 0.917676C1.7057 1.68345 2.06084 2.5602 2.82661 2.88204L10.0848 5.94512V12.7372V13.8137V22.0707V29.4509V38.7734C10.0848 41.8808 12.4154 44.4556 15.423 44.844C14.8792 45.7541 14.5573 46.8195 14.5573 47.9515C14.5573 51.292 17.2764 54 20.6058 54C23.9352 54 26.6543 51.2809 26.6543 47.9515C26.6543 46.8417 26.3546 45.7874 25.8219 44.8995H39.295C38.7623 45.7985 38.4627 46.8417 38.4627 47.9515C38.4627 51.292 41.1817 54 44.5111 54C47.8406 54 50.5596 51.2809 50.5596 47.9515C50.5596 44.6221 47.8406 41.903 44.5111 41.903H16.2109C14.4796 41.903 13.0813 40.4936 13.0813 38.7734V34.7114C13.9913 35.2442 15.0678 35.5549 16.2109 35.5549ZM23.6689 47.9404C23.6689 49.6273 22.2927 50.9924 20.6169 50.9924C18.9411 50.9924 17.5649 49.6162 17.5649 47.9404C17.5649 46.2646 18.9411 44.8884 20.6169 44.8884C22.2927 44.8884 23.6689 46.2535 23.6689 47.9404ZM47.5742 47.9404C47.5742 49.6273 46.1981 50.9924 44.5222 50.9924C42.8464 50.9924 41.4703 49.6162 41.4703 47.9404C41.4703 46.2646 42.8464 44.8884 44.5222 44.8884C46.1981 44.8884 47.5742 46.2535 47.5742 47.9404ZM45.965 32.5584H16.2109C14.4796 32.5584 13.0813 31.1489 13.0813 29.4287V22.0485V13.7915V13.2366L49.0947 18.1974V29.4176C49.0947 31.16 47.6852 32.5584 45.965 32.5584Z" fill="white"/>
<circle cx="31.5" cy="13.5" r="13.5" fill="#FFE07D"/>
<text x="58%" y="38%" text-anchor="middle" stroke="black" stroke-width="2px">{{collect(session('cart'))->sum()}}</text>
</g>
<defs>
<clipPath id="clip1">
<rect width="54" height="54" fill="white"/>
</clipPath>
</defs>
</svg>
