<svg width="250" height="50" viewBox="0 0 250 50" fill="none" xmlns="http://www.w3.org/2000/svg">
<path d="M246.745 25.4921L246.744 25.4923L132.162 48.4085C128.219 49.1972 121.769 49.1972 117.826 48.4086L3.24458 25.4924L3.24359 25.4922C2.2991 25.3043 1.63057 25.0946 1.22281 24.8977C1.12012 24.8481 1.04683 24.8054 0.996292 24.7722V2.31239C0.997421 2.31165 0.998566 2.3109 0.99971 2.31015C1.18193 2.19107 1.51584 2.03992 2.03622 1.88381C3.06279 1.57585 4.59294 1.31294 6.50546 1.15547L6.50603 1.15542C10.3332 0.838136 14.7155 1.01835 17.5811 1.59146L124.798 23.0347L124.994 23.0739L125.19 23.0347L232.407 1.59136C235.273 1.01825 239.654 0.838038 243.482 1.15532L243.483 1.15537C245.395 1.31285 246.925 1.57575 247.952 1.88372C248.472 2.03983 248.806 2.19098 248.988 2.31006C248.99 2.31081 248.991 2.31156 248.992 2.3123V24.7721C248.941 24.8053 248.868 24.8481 248.765 24.8977C248.358 25.0946 247.689 25.3042 246.745 25.4921ZM0.896408 2.39006C0.895737 2.39001 0.899536 2.38536 0.90979 2.37626C0.902191 2.38556 0.897079 2.39011 0.896408 2.39006ZM249.092 2.38996C249.091 2.39002 249.086 2.38547 249.078 2.37615C249.089 2.38524 249.092 2.38991 249.092 2.38996Z" fill="#FFE07D" stroke="black" stroke-width="2"/>
</svg>
