<svg width="99" height="100" viewBox="0 0 99 100" fill="none" xmlns="http://www.w3.org/2000/svg">
<g clip-path="url(#clip0)">
<path d="M98.3992 42.2756L57.2485 0.610332C56.862 0.219917 56.3379 0.000979851 55.7918 0.00195638H2.29589C1.15955 3.32519e-06 0.236744 0.931023 0.234622 2.08157C0.233658 2.63623 0.451242 3.16844 0.839152 3.56022L95.4857 99.3901C95.8723 99.7805 96.3964 99.9994 96.9425 99.9984C97.2121 99.9983 97.4793 99.9445 97.7285 99.8401C98.498 99.518 98.9999 98.7583 99.0001 97.9151V43.7505C99.001 43.1976 98.785 42.667 98.3992 42.2756Z" fill="#009688"/>
<path d="M43.4467 33.3337C42.3104 33.3339 41.3889 32.4015 41.3887 31.2509C41.3887 31.1109 41.4026 30.9711 41.4304 30.8338L44.2121 16.7468L36.6732 24.3924C35.8559 25.1918 34.5533 25.1687 33.7638 24.3412C32.9938 23.5338 32.9938 22.254 33.7638 21.4468L46.109 8.94727C46.9124 8.13363 48.2152 8.13343 49.0188 8.94688C49.5047 9.43885 49.7162 10.1439 49.5821 10.8263L46.8004 24.9133L54.3433 17.2802C55.1326 16.4527 56.4352 16.4296 57.2527 17.229C58.0702 18.0284 58.0928 19.3471 57.3033 20.1748C57.2867 20.1922 57.2699 20.2092 57.2527 20.2259L44.9075 32.7255C44.52 33.1169 43.9941 33.3358 43.4467 33.3337Z" fill="#FAFAFA"/>
<path d="M55.7918 45.8333C55.2457 45.8343 54.7216 45.6156 54.3351 45.225L48.1625 38.9752C47.3593 38.1617 47.3593 36.843 48.1625 36.0294L60.5077 23.5299C61.3111 22.7166 62.6135 22.7166 63.4171 23.5299L69.5897 29.7796C70.407 30.579 70.4296 31.8977 69.6402 32.7254C68.8507 33.5529 67.5483 33.5758 66.7308 32.7766C66.7137 32.7598 66.6969 32.7428 66.6803 32.7254L61.9644 27.9465L52.5286 37.5002L57.2445 42.2751C58.0491 43.0875 58.0506 44.4066 57.2482 45.2212C56.8622 45.613 56.3383 45.8333 55.7918 45.8333Z" fill="#FAFAFA"/>
<path d="M59.9071 37.5002C59.361 37.5012 58.8369 37.2824 58.4503 36.8918L54.3353 32.7254C53.546 31.8978 53.5686 30.579 54.3859 29.7796C55.1833 28.9999 56.4473 28.9999 57.2446 29.7796L61.3595 33.946C62.1618 34.7608 62.1599 36.0799 61.3549 36.8922C60.9707 37.2805 60.4501 37.4988 59.9071 37.5002Z" fill="#FAFAFA"/>
<path d="M72.252 62.4995C71.1157 62.4987 70.1952 61.5652 70.196 60.4146C70.1962 60.1914 70.2316 59.9697 70.3015 59.7578L73.1162 51.2122L64.6761 54.0621C63.886 54.3217 63.0191 54.0809 62.4704 53.4496C61.9262 52.8128 61.8141 51.9069 62.1864 51.1538L70.4166 34.4878C70.9245 33.4582 72.1608 33.0402 73.1779 33.5545C74.195 34.0687 74.6076 35.3204 74.0998 36.3503L68.0917 48.5164L75.7251 45.9415C76.4652 45.6966 77.2785 45.8913 77.8321 46.4456C78.3839 47.0036 78.5768 47.8297 78.3299 48.5789L75.7868 56.3036L87.8028 50.2205C88.8197 49.7062 90.056 50.124 90.564 51.1538C91.0719 52.1835 90.6593 53.4352 89.6422 53.9496L73.1822 62.2827C72.8932 62.4278 72.5745 62.502 72.252 62.4995Z" fill="#FAFAFA"/>
</g>
<defs>
<clipPath id="clip0">
<rect width="98.7654" height="100" fill="white" transform="translate(0.234619)"/>
</clipPath>
</defs>
</svg>
