<svg id="Capa_1" enable-background="new 0 0 512 512" height="512" viewBox="0 0 512 512" width="512" xmlns="http://www.w3.org/2000/svg"><g><g><circle cx="256" cy="256" fill="#feb740" r="248.5"/></g><g><path d="m256 7.5c-52.476 0-101.143 16.28-141.254 44.045 35.741-21.417 77.556-33.74 122.254-33.74 131.552 0 238.195 106.644 238.195 238.195s-106.643 238.195-238.195 238.195c-44.698 0-86.513-12.323-122.254-33.74 40.111 27.765 88.778 44.045 141.254 44.045 137.243 0 248.5-111.257 248.5-248.5s-111.257-248.5-248.5-248.5z" fill="#fea613"/></g><g><circle cx="256" cy="256" fill="#f8e883" r="214.582"/></g><g><path d="m256 41.418c-5.044 0-10.043.188-15 .53 111.51 7.702 199.582 100.585 199.582 214.052s-88.072 206.351-199.582 214.052c4.957.342 9.956.53 15 .53 118.511 0 214.582-96.072 214.582-214.582 0-118.511-96.071-214.582-214.582-214.582z" fill="#f5de46"/></g><g><ellipse cx="107.339" cy="203.538" fill="#df646e" rx="25.978" ry="25.978" transform="matrix(.707 -.707 .707 .707 -112.484 135.515)"/></g><g><ellipse cx="379.445" cy="360.154" fill="#df646e" rx="25.978" ry="25.978" transform="matrix(.23 -.973 .973 .23 -58.254 646.702)"/></g><g><ellipse cx="379.445" cy="151.93" fill="#df646e" rx="25.978" ry="25.978" transform="matrix(.23 -.973 .973 .23 144.4 486.318)"/></g><g><path d="m107.339 177.559c-5.59 0-10.762 1.771-15 4.775 6.64 4.706 10.978 12.446 10.978 21.203 0 8.758-4.338 16.498-10.978 21.203 4.238 3.003 9.41 4.775 15 4.775 14.347 0 25.978-11.631 25.978-25.978s-11.631-25.978-25.978-25.978z" fill="#dc4955"/></g><g><path d="m379.445 334.176c-5.59 0-10.762 1.771-15 4.775 6.64 4.706 10.978 12.446 10.978 21.203 0 8.758-4.338 16.498-10.978 21.203 4.238 3.003 9.41 4.775 15 4.775 14.347 0 25.978-11.631 25.978-25.978s-11.631-25.978-25.978-25.978z" fill="#dc4955"/></g><g><path d="m379.445 125.952c-5.59 0-10.762 1.771-15 4.775 6.64 4.706 10.978 12.446 10.978 21.203 0 8.758-4.338 16.498-10.978 21.203 4.238 3.003 9.41 4.775 15 4.775 14.347 0 25.978-11.631 25.978-25.978s-11.631-25.978-25.978-25.978z" fill="#dc4955"/></g><g><circle cx="179.545" cy="212.4" fill="#df646e" r="15.392"/></g><g><ellipse cx="96.753" cy="307.203" fill="#dc4955" rx="15.392" ry="15.392" transform="matrix(.23 -.973 .973 .23 -224.461 330.788)"/></g><g><ellipse cx="256" cy="344.762" fill="#df6937" rx="15.392" ry="15.392" transform="matrix(.924 -.383 .383 .924 -112.448 124.21)"/></g><g><ellipse cx="256" cy="344.762" fill="#df646e" rx="15.392" ry="15.392" transform="matrix(.924 -.383 .383 .924 -112.448 124.21)"/></g><g><ellipse cx="225.216" cy="414.252" fill="#df646e" rx="15.392" ry="15.392" transform="matrix(.707 -.707 .707 .707 -226.957 280.583)"/></g><g><ellipse cx="215.293" cy="95.056" fill="#df646e" rx="15.392" ry="15.392" transform="matrix(.23 -.973 .973 .23 73.316 282.75)"/></g><g><ellipse cx="420.876" cy="213.111" fill="#df646e" rx="15.392" ry="15.392" transform="matrix(.23 -.973 .973 .23 116.768 573.765)"/></g><g><circle cx="419.876" cy="301.118" fill="#df646e" r="15.392"/></g><g><ellipse cx="256" cy="152.964" fill="#df646e" rx="19.558" ry="19.558" transform="matrix(.16 -.987 .987 .16 64.004 381.157)"/></g><g><ellipse cx="171.068" cy="307.203" fill="#dc4955" rx="19.558" ry="19.558" transform="matrix(.23 -.973 .973 .23 -167.221 403.114)"/></g><g><path d="m310.23 86.655c5.397 10.373-.396 24.567-2.909 29.795-.599 1.246-1.95 1.949-3.313 1.724-5.723-.942-20.672-4.345-26.069-14.718s.396-24.567 2.909-29.795c.599-1.246 1.95-1.949 3.313-1.724 5.723.943 20.672 4.345 26.069 14.718z" fill="#92e0c4"/></g><g><path d="m340.774 279.283c11.689.312 21.291 12.264 24.644 16.997.799 1.128.758 2.65-.1 3.734-3.6 4.548-13.827 15.97-25.516 15.657-11.688-.312-21.291-12.263-24.644-16.997-.799-1.128-.758-2.65.1-3.734 3.6-4.547 13.827-15.969 25.516-15.657z" fill="#92e0c4"/></g><g><path d="m305.386 401.852c6.162 9.937 1.454 24.527-.658 29.929-.503 1.287-1.798 2.09-3.174 1.969-5.778-.509-20.941-2.777-27.103-12.714s-1.454-24.527.658-29.929c.503-1.287 1.798-2.09 3.174-1.969 5.778.509 20.94 2.777 27.103 12.714z" fill="#92e0c4"/></g><g><path d="m148.785 353.698c6.162 9.937 1.454 24.527-.658 29.929-.503 1.287-1.798 2.09-3.174 1.969-5.778-.509-20.941-2.777-27.103-12.714s-1.454-24.527.658-29.929c.503-1.287 1.798-2.09 3.174-1.969 5.778.51 20.941 2.777 27.103 12.714z" fill="#92e0c4"/></g><g><path d="m162.297 134.184c7.779 8.729 5.65 23.912 4.498 29.597-.275 1.354-1.411 2.368-2.788 2.485-5.779.492-21.106.866-28.885-7.863s-5.65-23.912-4.498-29.597c.275-1.354 1.411-2.368 2.788-2.485 5.779-.492 21.106-.866 28.885 7.863z" fill="#92e0c4"/></g><g><path d="m340.342 195.338c11.418 2.518 18.586 16.071 20.982 21.353.571 1.259.243 2.746-.805 3.647-4.396 3.784-16.599 13.064-28.018 10.546-11.418-2.518-18.586-16.071-20.982-21.353-.571-1.259-.243-2.746.804-3.647 4.397-3.785 16.601-13.065 28.019-10.546z" fill="#92e0c4"/></g><g><path d="m233.107 344.762c0 12.623 10.27 22.892 22.893 22.892s22.893-10.27 22.893-22.892-10.27-22.892-22.893-22.892-22.893 10.27-22.893 22.892zm30.786 0c0 4.352-3.541 7.892-7.893 7.892s-7.893-3.54-7.893-7.892 3.541-7.892 7.893-7.892 7.893 3.54 7.893 7.892z"/><path d="m437.02 74.981c-48.352-48.352-112.64-74.981-181.02-74.981s-132.668 26.629-181.02 74.981c-48.351 48.352-74.98 112.639-74.98 181.019s26.629 132.667 74.98 181.02c48.352 48.351 112.64 74.98 181.02 74.98s132.668-26.628 181.02-74.98c48.351-48.353 74.98-112.64 74.98-181.02s-26.629-132.667-74.98-181.019zm-10.607 351.432c-45.518 45.518-106.039 70.587-170.413 70.587s-124.895-25.068-170.413-70.587c-45.519-45.519-70.587-106.04-70.587-170.413s25.068-124.894 70.587-170.413c45.518-45.518 106.039-70.587 170.413-70.587s124.895 25.068 170.413 70.587c45.519 45.519 70.587 106.039 70.587 170.413s-25.068 124.894-70.587 170.413z"/><path d="m448.327 144.959c-19.463-33.713-47.572-61.822-81.287-81.287-33.713-19.464-72.11-29.753-111.04-29.753s-77.327 10.289-111.04 29.753c-33.715 19.465-61.824 47.574-81.287 81.287-19.465 33.715-29.754 72.112-29.754 111.041s10.289 77.326 29.754 111.041c19.463 33.713 47.571 61.822 81.287 81.287 33.713 19.465 72.11 29.753 111.04 29.753s77.327-10.289 111.04-29.753c33.716-19.465 61.824-47.574 81.287-81.287 19.465-33.714 29.754-72.111 29.754-111.041 0-38.929-10.289-77.326-29.754-111.041zm-192.327-96.04c33.797 0 67.165 8.317 96.977 24.112l-96.977 167.969-96.977-167.969c29.812-15.795 63.18-24.112 96.977-24.112zm-179.337 310.621c-16.899-29.269-26.37-62.325-27.597-96.04h92.002c4.143 0 7.5-3.358 7.5-7.5s-3.357-7.5-7.5-7.5h-92.012c1.228-33.715 10.709-66.771 27.607-96.04 16.897-29.268 40.784-54.007 69.37-71.928l96.977 167.968h-71.942c-4.143 0-7.5 3.358-7.5 7.5s3.357 7.5 7.5 7.5h71.942l-96.972 167.96c-28.587-17.921-52.478-42.651-69.375-71.92zm179.337 103.541c-33.797 0-67.165-8.317-96.977-24.112l96.977-167.969 96.977 167.969c-29.812 15.795-63.18 24.112-96.977 24.112zm179.337-103.541c-16.897 29.269-40.788 53.998-69.375 71.92l-96.972-167.96h94.505c4.143 0 7.5-3.358 7.5-7.5s-3.357-7.5-7.5-7.5h-94.505l96.977-167.969c28.586 17.922 52.473 42.661 69.37 71.928 16.898 29.27 26.38 62.326 27.607 96.04h-69.449c-4.143 0-7.5 3.358-7.5 7.5s3.357 7.5 7.5 7.5h69.439c-1.227 33.717-10.698 66.772-27.597 96.041z"/><path d="m107.339 170.059c-18.46 0-33.478 15.018-33.478 33.478s15.018 33.478 33.478 33.478 33.479-15.018 33.479-33.478-15.019-33.478-33.479-33.478zm0 51.957c-10.188 0-18.478-8.289-18.478-18.478s8.289-18.478 18.478-18.478 18.479 8.289 18.479 18.478c-.001 10.189-8.29 18.478-18.479 18.478z"/><path d="m379.444 326.676c-18.46 0-33.478 15.018-33.478 33.478s15.018 33.478 33.478 33.478 33.479-15.018 33.479-33.478-15.019-33.478-33.479-33.478zm0 51.956c-10.188 0-18.478-8.289-18.478-18.478s8.289-18.478 18.478-18.478 18.479 8.289 18.479 18.478-8.289 18.478-18.479 18.478z"/><path d="m412.923 151.931c0-18.46-15.019-33.478-33.479-33.478s-33.478 15.018-33.478 33.478 15.018 33.478 33.478 33.478 33.479-15.018 33.479-33.478zm-51.956 0c0-10.189 8.289-18.478 18.478-18.478s18.479 8.289 18.479 18.478-8.289 18.478-18.479 18.478c-10.189 0-18.478-8.289-18.478-18.478z"/><path d="m156.653 212.4c0 12.623 10.27 22.892 22.892 22.892 12.623 0 22.893-10.27 22.893-22.892 0-12.623-10.27-22.892-22.893-22.892-12.622 0-22.892 10.269-22.892 22.892zm22.892-7.892c4.352 0 7.893 3.54 7.893 7.892s-3.541 7.892-7.893 7.892-7.892-3.54-7.892-7.892 3.54-7.892 7.892-7.892z"/><path d="m119.646 307.203c0-12.622-10.27-22.892-22.893-22.892-12.622 0-22.892 10.27-22.892 22.892 0 12.623 10.27 22.892 22.892 22.892 12.623.001 22.893-10.269 22.893-22.892zm-22.893 7.893c-4.352 0-7.892-3.54-7.892-7.892s3.54-7.892 7.892-7.892 7.893 3.541 7.893 7.892-3.542 7.892-7.893 7.892z"/><path d="m225.216 391.36c-12.623 0-22.893 10.27-22.893 22.892 0 12.623 10.27 22.892 22.893 22.892 12.622 0 22.892-10.27 22.892-22.892-.001-12.622-10.27-22.892-22.892-22.892zm0 30.784c-4.352 0-7.893-3.54-7.893-7.892s3.541-7.892 7.893-7.892 7.892 3.54 7.892 7.892c-.001 4.352-3.541 7.892-7.892 7.892z"/><path d="m238.186 95.056c0-12.623-10.27-22.892-22.893-22.892s-22.893 10.27-22.893 22.892 10.27 22.892 22.893 22.892 22.893-10.269 22.893-22.892zm-22.893 7.892c-4.352 0-7.893-3.54-7.893-7.892s3.541-7.892 7.893-7.892 7.893 3.541 7.893 7.892-3.541 7.892-7.893 7.892z"/><path d="m397.983 213.111c0 12.623 10.27 22.892 22.893 22.892 12.622 0 22.892-10.27 22.892-22.892 0-12.623-10.27-22.892-22.892-22.892-12.623 0-22.893 10.27-22.893 22.892zm22.893-7.892c4.352 0 7.892 3.541 7.892 7.892 0 4.352-3.54 7.892-7.892 7.892s-7.893-3.54-7.893-7.892c0-4.351 3.541-7.892 7.893-7.892z"/><path d="m419.876 278.226c-12.623 0-22.893 10.27-22.893 22.892s10.27 22.892 22.893 22.892c12.622 0 22.892-10.27 22.892-22.892s-10.27-22.892-22.892-22.892zm0 30.784c-4.352 0-7.893-3.541-7.893-7.892 0-4.352 3.541-7.892 7.893-7.892s7.892 3.54 7.892 7.892-3.54 7.892-7.892 7.892z"/><path d="m283.059 152.964c0-14.92-12.139-27.058-27.059-27.058s-27.059 12.138-27.059 27.058 12.139 27.058 27.059 27.058 27.059-12.138 27.059-27.058zm-39.118 0c0-6.649 5.409-12.058 12.059-12.058 6.649 0 12.059 5.409 12.059 12.058s-5.409 12.058-12.059 12.058c-6.649 0-12.059-5.409-12.059-12.058z"/><path d="m171.067 334.262c14.92 0 27.059-12.138 27.059-27.058s-12.139-27.058-27.059-27.058-27.058 12.138-27.058 27.058c.001 14.919 12.139 27.058 27.058 27.058zm0-39.117c6.649 0 12.059 5.409 12.059 12.058s-5.409 12.058-12.059 12.058c-6.648 0-12.058-5.409-12.058-12.058s5.41-12.058 12.058-12.058z"/><path d="m302.789 125.574c.568.094 1.137.139 1.701.139 4.022 0 7.813-2.314 9.591-6.014 3.146-6.547 9.72-23.211 2.803-36.505v-.001c-6.919-13.296-24.337-17.476-31.505-18.656-4.617-.76-9.264 1.655-11.291 5.875-3.146 6.547-9.72 23.211-2.803 36.505 6.917 13.297 24.336 17.477 31.504 18.657zm-16.542-45.581c7.124 1.653 14.653 4.979 17.33 10.124 2.677 5.144 1.079 13.219-1.655 20.002-7.124-1.653-14.653-4.979-17.33-10.124-2.677-5.144-1.079-13.22 1.655-20.002z"/><path d="m371.198 304.668c2.905-3.671 3.045-8.903.339-12.723-4.198-5.928-15.581-19.759-30.564-20.159 0 0 0 0 0-.001-15.013-.395-27.087 12.804-31.597 18.501-2.906 3.672-3.045 8.904-.339 12.722 4.198 5.928 15.58 19.76 30.564 20.16.223.006.445.009.667.009 14.673.001 26.488-12.897 30.93-18.509zm-30.93 3.51c-.089 0-.178-.001-.266-.004-5.797-.154-12.083-5.468-16.688-11.15 4.9-5.427 11.44-10.412 17.259-10.243 5.797.155 12.084 5.469 16.688 11.15-4.826 5.345-11.263 10.247-16.993 10.247z"/><path d="m268.123 388.375c-2.645 6.766-7.945 23.876-.047 36.614 7.898 12.737 25.582 15.595 32.819 16.232.307.027.612.04.917.04 4.318 0 8.305-2.674 9.9-6.749 2.645-6.766 7.945-23.876.047-36.613s-25.583-15.595-32.817-16.231c-4.672-.414-9.115 2.347-10.819 6.707zm12.846 8.639c7.228 1.112 14.986 3.862 18.043 8.79 3.057 4.929 2.071 13.103-.145 20.07-7.228-1.112-14.987-3.862-18.043-8.79s-2.072-13.1.145-20.07z"/><path d="m155.112 386.359c2.645-6.766 7.945-23.877.047-36.613-7.899-12.738-25.583-15.595-32.82-16.232-4.656-.409-9.112 2.349-10.816 6.708-2.646 6.766-7.945 23.876-.047 36.613s25.582 15.595 32.816 16.231c.309.027.615.041.921.041 4.318.001 8.304-2.673 9.899-6.748zm-12.845-8.638c-7.228-1.111-14.986-3.862-18.043-8.79s-2.071-13.1.146-20.07c7.228 1.112 14.985 3.862 18.042 8.791 3.056 4.928 2.07 13.101-.145 20.069z"/><path d="m164.645 173.739c4.665-.398 8.572-3.881 9.502-8.469 1.442-7.12 3.72-24.889-6.25-36.075-9.973-11.189-27.884-10.963-35.12-10.346-4.666.397-8.574 3.88-9.504 8.469-1.442 7.12-3.72 24.888 6.25 36.076 7.94 8.91 20.916 10.581 29.527 10.581 2.203-.001 4.121-.11 5.595-.236zm-23.923-20.326c-3.858-4.329-4.294-12.55-3.309-19.796 7.286-.143 15.426 1.227 19.284 5.557h.001c3.857 4.328 4.293 12.549 3.308 19.795-7.293.147-15.426-1.226-19.284-5.556z"/><path d="m341.958 188.014c-14.635-3.228-29.021 7.447-34.527 12.186-3.548 3.055-4.675 8.166-2.74 12.429 3 6.616 11.559 22.351 26.196 25.579 1.87.413 3.734.598 5.579.598 12.587 0 24.146-8.65 28.949-12.785 3.545-3.054 4.672-8.164 2.739-12.428-3.001-6.616-11.561-22.351-26.196-25.579zm-7.841 35.546c-5.664-1.249-10.831-7.656-14.276-14.106 5.841-4.403 13.221-8.039 18.887-6.792 5.663 1.249 10.831 7.658 14.276 14.107-5.839 4.401-13.224 8.041-18.887 6.791z"/></g></g></svg>