<svg width="163" height="160" viewBox="0 0 163 160" fill="none" xmlns="http://www.w3.org/2000/svg">
<g clip-path="url(#clip0)">
<path d="M159.336 80H3.66406V156.875H159.336V80Z" fill="#FFE07D"/>
<path d="M132.343 79.0282C132.963 78.0651 133.478 77.0295 133.871 75.9373C134.832 76.1192 135.823 76.2179 136.838 76.2179C145.49 76.2179 152.503 69.2907 152.503 60.7457C152.503 53.5098 147.473 47.4357 140.679 45.7438C142.621 43.167 143.772 39.9732 143.772 36.5138C143.772 27.9688 136.758 21.0417 128.106 21.0417C124.58 21.0417 121.327 22.1926 118.709 24.1342C115.4 21.2354 111.048 19.4723 106.277 19.4723C105.151 19.4723 104.051 19.5757 102.979 19.7635C100.825 10.3851 92.34 3.13916 82.1963 3.13916C72.9187 3.13916 65.0291 8.99541 62.1008 17.1679C60.7266 16.8932 59.3053 16.7479 57.8492 16.7479C47.9523 16.7479 39.6305 23.4098 37.2306 32.441V78.4451L132.343 79.0282Z" fill="#30995B"/>
<path d="M112.403 35.5015L109.165 52.6768L111.875 79.9999L120.454 37.1371L112.403 35.5015Z" fill="#ACD670"/>
<path d="M127.103 50.6802L109.768 79.0289L120.454 79.2192L136.328 56.7436L127.103 50.6802Z" fill="#ACD670"/>
<path d="M109.065 43.5342H100.877V79.9998H109.065V43.5342Z" fill="#ACD670"/>
<path d="M29.9764 3.125H22.3827V29.5563H29.9764V3.125Z" fill="#ACD670"/>
<path d="M44.3276 79.9998C46.0517 73.7467 47.5657 67.8583 48.6621 62.9839C49.804 57.9067 50.4922 53.9295 50.4922 51.7858C50.4922 39.933 40.0093 30.3242 27.0781 30.3242C14.1469 30.3242 3.66406 39.933 3.66406 51.7858C3.66406 55.988 6.3089 67.2339 9.82861 80.0002H44.3276V79.9998Z" fill="#EF7159"/>
<path d="M80.8672 80C80.8672 68.9544 71.8009 60 60.6172 60C49.4335 60 40.3672 68.9544 40.3672 80H80.8672Z" fill="#ACD670"/>
<path d="M94.9843 65.9561C94.9843 54.9104 85.918 45.9561 74.7343 45.9561C65.5965 45.9561 57.8727 51.9336 55.3522 60.1454C55.3522 60.1454 76.8858 59.2098 80.2476 75.0736C85.9297 63.6461 94.9843 65.9561 94.9843 65.9561Z" fill="#FFC943"/>
<path d="M101.05 80.0397C101.5 78.8769 101.75 77.6118 101.75 76.2868C101.75 70.6119 97.2168 66.0112 91.625 66.0112C86.0332 66.0112 81.5 70.6119 81.5 76.2868C81.5 77.6118 81.7496 78.8769 82.1999 80.0397H101.05Z" fill="#A766B2"/>
<path d="M22.6886 141.592L22.6595 141.57C21.2723 140.521 19.2866 140.781 18.2234 142.151C17.161 143.521 17.4242 145.483 18.811 146.532L18.8401 146.554C19.4141 146.989 20.0906 147.199 20.762 147.199C21.7128 147.199 22.6531 146.777 23.2758 145.974C24.3389 144.603 24.0757 142.642 22.6886 141.592Z" fill="black"/>
<path d="M22.6886 115.967L22.6595 115.945C21.2723 114.896 19.2866 115.156 18.2234 116.526C17.161 117.896 17.4242 119.858 18.811 120.907L18.8401 120.929C19.4141 121.364 20.0906 121.574 20.762 121.574C21.7128 121.574 22.6531 121.152 23.2758 120.349C24.3389 118.978 24.0757 117.017 22.6886 115.967Z" fill="black"/>
<path d="M22.6886 90.3423L22.6595 90.3204C21.2723 89.2714 19.2866 89.5307 18.2234 90.9011C17.161 92.2711 17.4242 94.2326 18.811 95.2823L18.8401 95.3042C19.4141 95.7386 20.0906 95.9486 20.762 95.9486C21.7128 95.9486 22.6531 95.5267 23.2758 94.7236C24.3389 93.3532 24.0757 91.392 22.6886 90.3423Z" fill="black"/>
<path d="M144.161 141.583L144.132 141.561C142.739 140.518 140.754 140.788 139.699 142.164C138.643 143.539 138.917 145.5 140.31 146.542L140.339 146.564C140.911 146.992 141.582 147.199 142.247 147.199C143.204 147.199 144.149 146.772 144.772 145.961C145.827 144.586 145.554 142.625 144.161 141.583Z" fill="black"/>
<path d="M140.31 120.917L140.339 120.939C140.911 121.367 141.582 121.574 142.248 121.574C143.204 121.574 144.149 121.147 144.772 120.336C145.827 118.961 145.554 117.001 144.161 115.958L144.132 115.936C142.739 114.894 140.754 115.164 139.699 116.54C138.644 117.915 138.917 119.875 140.31 120.917Z" fill="black"/>
<path d="M140.309 95.2923L140.339 95.3142C140.911 95.742 141.582 95.9489 142.247 95.9489C143.204 95.9489 144.149 95.5223 144.772 94.7114C145.827 93.3361 145.554 91.3758 144.161 90.3333L144.132 90.3114C142.739 89.2689 140.754 89.5389 139.699 90.9145C138.643 92.2901 138.917 94.2498 140.309 95.2923Z" fill="black"/>
<path d="M117.362 108.75H117.403C119.15 108.75 120.567 107.351 120.567 105.625C120.567 103.899 119.15 102.5 117.403 102.5H117.362C115.615 102.5 114.198 103.899 114.198 105.625C114.198 107.351 115.615 108.75 117.362 108.75Z" fill="black"/>
<path d="M45.6379 128.125H45.5968C43.8496 128.125 42.4327 129.524 42.4327 131.25C42.4327 132.976 43.8496 134.375 45.5968 134.375H45.6379C47.3851 134.375 48.802 132.976 48.802 131.25C48.802 129.524 47.3854 128.125 45.6379 128.125Z" fill="black"/>
<path d="M23.8254 56.9565C22.9933 56.9565 22.177 57.2909 21.5884 57.8722C21.0002 58.4534 20.6614 59.2597 20.6614 60.0847C20.6614 60.9065 20.9999 61.7097 21.5884 62.2909C22.177 62.8753 22.9904 63.2065 23.8254 63.2065C24.6576 63.2065 25.4739 62.8753 26.0624 62.2909C26.6506 61.7097 26.9895 60.9065 26.9895 60.0847C26.9895 59.2597 26.6509 58.4565 26.0624 57.8722C25.4739 57.2909 24.6576 56.9565 23.8254 56.9565Z" fill="black"/>
<path d="M159.336 76.875H146.194C151.849 73.6625 155.668 67.6388 155.668 60.7466C155.668 53.5916 151.558 47.2225 145.296 44.1234C146.376 41.7516 146.937 39.1756 146.937 36.5147C146.937 26.2603 138.49 17.9175 128.107 17.9175C124.833 17.9175 121.69 18.7331 118.888 20.2941C115.212 17.7353 110.816 16.3481 106.278 16.3481C105.97 16.3481 105.665 16.3587 105.36 16.3713C102.017 6.74687 92.6954 0.015 82.197 0.015C72.7302 0.015 64.1638 5.43031 60.1277 13.7281C59.3705 13.6588 58.6099 13.6238 57.8499 13.6238C47.9005 13.6238 39.0639 19.5578 35.2911 28.4062C34.6216 28.2044 33.9403 28.0281 33.249 27.8753C33.6116 23.8812 34.8943 20.8194 37.0829 18.7606C38.9892 16.9672 40.9041 16.5956 40.9848 16.5806L40.9408 16.5878L40.9402 16.5844C41.6091 16.4872 42.2422 16.1825 42.7228 15.7056C43.311 15.1244 43.6499 14.3213 43.6499 13.4994C43.6499 12.6744 43.3114 11.8713 42.7228 11.2869C42.1343 10.7056 41.318 10.3713 40.4858 10.3713C40.3083 10.3713 40.1321 10.3897 39.9581 10.4191L39.9571 10.4138C38.0783 10.7059 35.5088 11.7459 33.1389 13.8591V3.125C33.1389 1.39906 31.722 0 29.9748 0H22.3811C20.6339 0 19.217 1.39906 19.217 3.125V14.8097C15.5771 10.4037 11.6476 7.82812 11.3429 7.63156C9.88145 6.69 7.92669 7.09688 6.97082 8.53813C6.01464 9.97969 6.42313 11.9156 7.88049 12.8628C7.98522 12.9306 17.5581 19.2619 18.9803 28.3697C8.27347 31.5462 0.5 40.8403 0.5 51.7856C0.5 56.3331 3.12586 67.2525 5.70298 76.875H3.66406C1.91687 76.875 0.5 78.2741 0.5 80V156.875C0.5 158.601 1.91687 160 3.66406 160H159.336C161.083 160 162.5 158.601 162.5 156.875V80C162.5 78.2741 161.083 76.875 159.336 76.875ZM57.8499 19.8738C59.0671 19.8738 60.2859 19.9941 61.4734 20.2316C63.0187 20.5403 64.558 19.6794 65.0839 18.2113C67.6446 11.0659 74.5217 6.265 82.197 6.265C89.6769 6.265 96.3521 10.8709 99.0615 17.5594C90.515 20.5128 84.366 28.5525 84.366 37.9888C84.366 39.7147 85.7829 41.1137 87.5301 41.1137C89.2773 41.1137 90.6941 39.7147 90.6941 37.9888C90.6941 29.5022 97.6848 22.5981 106.277 22.5981C110.088 22.5981 113.758 23.9741 116.61 26.4728C117.735 27.4581 119.407 27.5253 120.609 26.6341C122.785 25.0203 125.378 24.1675 128.106 24.1675C135 24.1675 140.608 29.7066 140.608 36.5147C140.608 39.1912 139.755 41.7378 138.141 43.8784C137.51 44.7156 137.344 45.8091 137.698 46.7925C138.053 47.7759 138.881 48.5197 139.906 48.775C145.46 50.1581 149.339 55.0809 149.339 60.7466C149.339 67.5547 143.731 73.0938 136.838 73.0938C136.053 73.0938 135.255 73.0181 134.468 72.8691C132.934 72.5778 131.416 73.4366 130.891 74.8891C130.643 75.5756 130.33 76.2403 129.961 76.875H125.967L138.923 58.5312C139.41 57.8419 139.595 56.9875 139.437 56.1616C139.278 55.3356 138.789 54.6075 138.081 54.1419L128.856 48.0788C128.138 47.6063 127.254 47.4441 126.412 47.6306C125.57 47.8169 124.841 48.3347 124.395 49.0647L119.782 56.6084L123.558 37.7431C123.895 36.0591 122.794 34.4219 121.091 34.0762L113.04 32.4409C112.208 32.2716 111.342 32.4403 110.637 32.9084C109.932 33.3766 109.448 34.105 109.292 34.9297L108.259 40.4094H100.875C99.1279 40.4094 97.7111 41.8084 97.7111 43.5344V61.5169C95.6082 50.8828 86.1075 42.8312 74.7346 42.8312C69.6098 42.8312 64.7422 44.4372 60.6586 47.4756C57.2911 49.9809 54.6463 53.3909 53.0548 57.2247C53.4579 54.8778 53.6566 53.0778 53.6566 51.7859C53.6566 47.5481 52.4912 43.5572 50.4419 40.0728C52.1043 35.6056 56.4261 32.5709 61.3145 32.5709C62.0913 32.5709 62.8697 32.6481 63.6284 32.8C65.1747 33.1106 66.7162 32.2472 67.2411 30.7775C67.9202 28.8781 69.1016 27.1791 70.6583 25.8641C71.986 24.7422 72.1416 22.7694 71.0058 21.4578C69.8702 20.1462 67.873 19.9928 66.5444 21.1144C64.8061 22.5831 63.3709 24.3638 62.3131 26.3484C61.9806 26.33 61.6474 26.3209 61.3149 26.3209C55.0171 26.3209 49.3281 29.5772 46.1185 34.6559C44.6156 33.2269 42.9285 31.9659 41.0905 30.9066C43.8685 24.3059 50.4435 19.8738 57.8499 19.8738ZM116.185 74.5797L128.103 55.0906L131.883 57.5753L118.252 76.875H115.726L116.185 74.5797ZM112.227 62.1241V53.4469C112.244 53.3812 112.262 53.3162 112.275 53.2487L114.923 39.2038L116.741 39.5731L112.227 62.1241ZM104.016 71.4541C104.03 71.3356 104.039 71.2156 104.039 71.0938V46.6591H105.899V76.875H104.901C104.909 76.6794 104.914 76.4834 104.914 76.2869C104.914 74.5834 104.594 72.9547 104.016 71.4541ZM60.6172 56.875C60.5235 56.875 60.4315 56.8809 60.3378 56.8819C63.4313 52.1381 68.852 49.0809 74.7343 49.0809C83.0944 49.0809 90.0667 55.0437 91.5323 62.8884C87.1542 62.9191 83.2744 65.095 80.8735 68.4241C76.8169 61.5266 69.2592 56.875 60.6172 56.875ZM77.4048 76.875H44.3276H43.8299C45.3186 69.0588 52.2777 63.125 60.6175 63.125C68.9573 63.125 75.9161 69.0588 77.4048 76.875ZM91.625 69.1362C95.4633 69.1362 98.5859 72.3441 98.5859 76.2869C98.5859 76.4841 98.5764 76.68 98.5609 76.875H84.6887C84.6732 76.68 84.6637 76.4841 84.6637 76.2869C84.6641 72.3441 87.7867 69.1362 91.625 69.1362ZM25.5451 6.25H26.8108V27.2053C26.3865 27.2094 25.9644 27.2206 25.5451 27.2428V6.25ZM7.01702 49.3156C7.21446 49.3537 7.41822 49.375 7.62673 49.375H23.2692C25.0164 49.375 26.4333 47.9759 26.4333 46.25C26.4333 44.5241 25.0164 43.125 23.2692 43.125H9.23471C12.6551 37.3703 19.3695 33.4491 27.0781 33.4491C38.2441 33.4491 47.3281 41.6747 47.3281 51.7856C47.3281 52.6009 47.1962 54.1053 46.6934 56.875H34.1261C32.3789 56.875 30.962 58.2741 30.962 60C30.962 61.7259 32.3789 63.125 34.1261 63.125H44.6327C40.7937 66.6747 38.1647 71.4812 37.423 76.875H12.2516C8.79491 64.1294 6.82812 55.0475 6.82812 51.7856C6.82812 50.9478 6.89615 50.1244 7.01702 49.3156ZM156.172 102.5H128.328C126.581 102.5 125.164 103.899 125.164 105.625C125.164 107.351 126.581 108.75 128.328 108.75H156.172V128.125H56.3792C54.632 128.125 53.2152 129.524 53.2152 131.25C53.2152 132.976 54.632 134.375 56.3792 134.375H156.172V153.75H6.82812V134.375H34.6719C36.4191 134.375 37.8359 132.976 37.8359 131.25C37.8359 129.524 36.4191 128.125 34.6719 128.125H6.82812V108.75H106.621C108.368 108.75 109.785 107.351 109.785 105.625C109.785 103.899 108.368 102.5 106.621 102.5H6.82812V83.125H9.82861H156.172V102.5Z" fill="black"/>
<path d="M78.1249 23.125H78.1666C79.9138 23.125 81.3307 21.7259 81.3307 20C81.3307 18.2741 79.9138 16.875 78.1666 16.875H78.1249C76.3777 16.875 74.9608 18.2741 74.9608 20C74.9608 21.7259 76.3777 23.125 78.1249 23.125Z" fill="black"/>
</g>
<defs>
<clipPath id="clip0">
<rect width="162" height="160" fill="white" transform="translate(0.5)"/>
</clipPath>
</defs>
</svg>
