<svg width="70" height="70" viewBox="0 0 70 70" fill="none" xmlns="http://www.w3.org/2000/svg">
<rect x="1" y="1" width="68" height="68" fill="white" stroke="black" stroke-width="2"/>
<path d="M51.374 31.4393L48.7723 26.1354L49.0603 32.0369C49.2795 36.4627 47.2351 38.9141 45.58 40.1632C46.1932 35.6125 46.7291 25.9365 41.8175 18.7418C38.7468 14.2452 34.0675 11.4936 27.9051 10.5631L24.1819 10L26.8699 12.6385C30.077 15.7866 31.7082 19.1187 31.7178 22.5448C31.7225 24.5214 31.1825 26.2889 30.5122 27.7207C30.3521 25.2208 29.4596 22.4008 26.5919 20.8511L24.6547 19.8051L24.794 22.0007C25.1106 27.0052 22.9735 30.0593 20.7094 33.2936C18.4233 36.559 16.0604 39.9346 16.4968 45.2082C17.2416 54.2108 22.7722 59.1784 32.9359 59.9725C33.1711 59.9916 33.4163 60 33.6663 60C38.8744 60 46.7208 56.0529 50.8382 49.4446C53.2314 45.6095 55.265 39.3691 51.374 31.4393ZM33.6675 57.5627C33.6115 57.5627 33.5603 57.5579 33.5068 57.5567C33.6675 57.5531 33.8128 57.5507 33.9503 57.5495C33.8573 57.5519 33.7591 57.5627 33.6675 57.5627ZM48.7712 48.1564C45.448 53.4881 39.2541 56.9447 34.8236 57.4817C39.6267 55.9827 42.3475 37.8951 32.525 34.9714C35.1159 39.468 31.1462 43.6734 27.7213 45.7131C24.2963 47.7527 21.9858 49.6721 23.383 54.0585C23.4342 54.2192 23.5111 54.3575 23.5795 54.5038C20.8058 52.4273 19.2854 49.2993 18.9306 45.0082C18.5656 40.6123 20.579 37.7367 22.7091 34.6934C24.6106 31.9781 26.7199 28.9627 27.176 24.6751C28.8857 27.5327 27.6832 31.9686 27.6678 32.0233L26.4383 36.4247L29.6966 33.223C29.8782 33.0438 34.1574 28.7657 34.1563 22.5718C34.1551 19.5284 33.1276 16.5874 31.0963 13.793C34.8237 14.9842 37.7408 17.1 39.7995 20.1101C45.7018 28.7425 42.7965 42.0388 42.7668 42.1745L42.294 44.2677L44.3349 43.5986C44.3932 43.5795 48.9547 42.0222 50.7764 37.0677C51.7573 41.8266 50.3571 45.6095 48.7712 48.1564Z" fill="black"/>
<path d="M44.586 17.4071C45.2016 18.3204 45.5088 19.1151 45.7088 20.1646C45.9077 21.2148 46.4733 23.4664 46.4733 23.4664L47.421 20.3028C48.2271 17.4285 47.2056 14.9864 44.4146 14.1161L39.9746 13.248C39.9746 13.248 41.6261 14.6256 42.5572 15.3133C43.025 15.6573 43.9693 16.4938 44.586 17.4071Z" fill="black"/>
</svg>
