<svg width="100" height="100" viewBox="0 0 100 100" fill="none" xmlns="http://www.w3.org/2000/svg">
<g clip-path="url(#clip0)">
<path d="M89.2242 0H66.0851C61.0054 0 54.2122 2.81372 50.621 6.40564L3.14636 53.8795C1.11694 55.9082 0 58.6136 0 61.4983C0 64.3829 1.11771 67.0883 3.14636 69.117L30.8823 96.8536C32.9109 98.8823 35.6163 100 38.501 100C41.3849 100 44.091 98.8823 46.1205 96.8536L93.5944 49.379C97.1863 45.7878 100 38.9946 100 33.9149V10.7742C99.9992 4.83322 95.1653 0 89.2242 0ZM94.1406 33.9149C94.1406 37.4481 91.9495 42.7383 89.4516 45.2362L41.9769 92.7101C41.0545 93.6325 39.8201 94.1406 38.501 94.1406C37.1819 94.1406 35.9482 93.6325 35.0258 92.7109L7.28989 64.9734C6.36749 64.0511 5.85938 62.8166 5.85938 61.4983C5.85938 60.1791 6.36673 58.9447 7.28912 58.0231L54.7638 10.5484C57.2617 8.05054 62.5519 5.85938 66.0851 5.85938H89.2242C91.935 5.85938 94.1399 8.06427 94.1406 10.7742V33.9149Z" fill="black"/>
<path d="M27.2083 64.744C26.1433 63.6797 26.4096 62.1263 28.0064 60.528C29.871 58.6641 31.2245 58.9967 31.9126 58.3093C32.7114 57.5105 32.0454 56.1342 31.535 55.6246C30.0701 54.1597 26.8528 56.756 25.5436 58.0652C22.9916 60.6172 21.2834 64.5891 24.5892 67.8957C29.8481 73.1546 35.9509 65.011 39.2796 68.3397C40.6109 69.671 40.0562 71.4235 38.7249 72.7556C36.4613 75.0184 34.1534 73.9091 33.244 74.8186C32.5558 75.5067 32.9113 77.0158 33.5324 77.6376C34.8194 78.9247 38.5029 78.1701 41.4097 75.2626C44.4721 72.2009 45.0489 68.3389 41.8759 65.1659C36.1286 59.4194 29.9595 67.4966 27.2083 64.744Z" fill="black"/>
<path d="M58.2294 55.2042L39.9883 45.5294C39.1232 45.0632 37.991 45.5737 37.1479 46.4175C36.327 47.2376 35.8166 48.3698 36.2827 49.2358L45.9576 67.4761C46.0239 67.5867 46.0911 67.6973 46.1353 67.7424C46.8456 68.4519 48.3768 67.8972 49.1528 67.1206C49.641 66.633 49.8638 66.0997 49.5525 65.5672L47.4445 61.7731L52.5265 56.6912L56.3206 58.8C56.8539 59.1097 57.3856 58.8885 57.8739 58.4002C58.6506 57.6235 59.1831 56.0694 58.4949 55.382C58.4293 55.3156 58.3401 55.2706 58.2294 55.2042ZM45.7806 58.9106L40.8985 50.1665L49.6418 55.0493L45.7806 58.9106Z" fill="black"/>
<path d="M66.9937 44.2208L61.5792 49.6354L48.7755 36.831C48.1537 36.21 47.1558 36.6761 46.4455 37.3857C45.7139 38.1181 45.2691 39.0946 45.8909 39.7164L60.3142 54.1406C60.9139 54.7395 61.8454 54.429 62.4893 53.785L69.5236 46.7507C70.1004 46.174 69.7457 45.2416 69.1239 44.6206C68.4807 43.9767 67.5713 43.6433 66.9937 44.2208Z" fill="black"/>
<path d="M78.5989 32.6158L72.3191 38.8955L67.859 34.4354L71.2319 31.0624C71.8529 30.4414 71.5424 29.5533 71.032 29.0429C70.4331 28.444 69.545 28.2228 68.9683 28.7995L65.5953 32.1717L61.1573 27.7337L67.437 21.4547C68.0138 20.8772 67.7476 19.9456 67.0602 19.2574C66.4605 18.6585 65.5289 18.303 64.9071 18.924L57.0077 26.8243C56.3645 27.4674 56.0532 28.3998 56.6529 28.9987L71.0549 43.3999C71.6538 43.9996 72.5854 43.6891 73.2293 43.0451L81.1288 35.1457C81.7506 34.5246 81.395 33.5923 80.7961 32.9934C80.108 32.3052 79.1756 32.039 78.5989 32.6158Z" fill="black"/>
<path d="M81.5371 15.7031C80.7658 15.7031 80.0097 16.0159 79.465 16.5607C78.9202 17.1054 78.6074 17.8615 78.6074 18.6328C78.6074 19.4049 78.9202 20.1587 79.465 20.7034C80.0097 21.2505 80.7658 21.5625 81.5371 21.5625C82.3084 21.5625 83.0622 21.2505 83.6077 20.7034C84.154 20.1587 84.4668 19.4026 84.4668 18.6328C84.4668 17.8615 84.154 17.1054 83.6077 16.5607C83.0622 16.0159 82.3084 15.7031 81.5371 15.7031Z" fill="black"/>
</g>
<defs>
<clipPath id="clip0">
<rect width="100" height="100" fill="white"/>
</clipPath>
</defs>
</svg>
