<svg width="70" height="70" viewBox="0 0 70 70" fill="none" xmlns="http://www.w3.org/2000/svg">
<rect x="1" y="1" width="68" height="68" fill="white" stroke="black" stroke-width="2"/>
<g clip-path="url(#clip0)">
<path d="M57.3492 24.3364C59.9382 21.221 59.9617 16.4052 59.9612 16.1782L57.0366 16.1845C57.0393 17.4244 56.6489 20.8157 54.9182 22.6729C52.1477 21.3561 48.5892 21.1846 45.5089 22.35C38.9584 24.8292 36.3896 35.5867 28.8841 37.9681C23.1964 39.7731 16.9599 38.215 13.4779 38.6843C4.82034 39.8491 12.8263 53.8227 31.9394 53.8219C57.7776 53.8217 64.4289 31.2229 57.3492 24.3364ZM13.5056 43.5743C13.0773 42.9004 12.8991 42.3024 13.0039 41.8908C13.1596 41.2778 17.6841 41.6161 17.9443 41.6314C30.7115 42.38 34.018 40.0456 40.3106 31.3819C41.4108 29.8674 42.4779 28.3989 43.5892 27.2334C44.341 29.0987 44.3337 29.7033 44.5401 31.3987C46.0627 31.1135 48.096 30.687 50.0118 30.8193C50.6241 33.0773 50.5934 34.3161 50.6728 36.4128C52.5163 35.7809 54.4014 35.0423 56.5746 35.1031C52.3447 54.0872 20.5438 54.6511 13.5056 43.5743ZM56.9917 32.1954C55.6974 32.1089 54.3716 32.3025 53.3515 32.5246C53.0691 30.5873 52.5497 29.0988 52.5214 29.0188C52.1853 28.0662 52.4569 28.3087 51.4722 28.0809C50.0652 27.7552 48.2168 27.8751 46.9508 28.0254C46.6865 27.0736 46.3115 26.1261 45.965 25.346C49.0675 23.735 57.5871 23.6273 56.9917 32.1954Z" fill="black"/>
</g>
<defs>
<clipPath id="clip0">
<rect width="50" height="50" fill="white" transform="translate(10 10)"/>
</clipPath>
</defs>
</svg>
